<?xml version="1.0" encoding="UTF-8"?>
<svg width="32px" height="24px" viewBox="0 0 32 24" version="1.1" xmlns="http://www.w3.org/2000/svg" xmlns:xlink="http://www.w3.org/1999/xlink">
    <title>flags/L/DZ - Algeria</title>
    <defs>
        <rect id="path-1" x="0" y="0" width="32" height="24"></rect>
    </defs>
    <g id="Symbols" stroke="none" stroke-width="1" fill="none" fill-rule="evenodd">
        <g id="flag">
            <mask id="mask-2" fill="white">
                <use xlink:href="#path-1"></use>
            </mask>
            <g id="mask"></g>
            <g id="contents" mask="url(#mask-2)">
                <polygon id="Path" fill="#F7FCFF" points="16 0 32 0 32 24 16 24"></polygon>
                <polygon id="Path" fill="#36A400" points="0 0 16 0 16 24 0 24"></polygon>
                <path d="M17.7911,6.79471 C19.3132,6.79471 20.704,7.35667 21.7674,8.28443 C20.4206,6.58389 18.3377,5.49295 16,5.49295 C11.9391,5.49295 8.64709,8.78495 8.64709,12.8458 C8.64709,16.9067 11.9391,20.1987 16,20.1987 C18.3377,20.1987 20.4207,19.1077 21.7674,17.4071 C20.704,18.3349 19.3132,18.8969 17.7911,18.8969 C14.4492,18.8969 11.74,16.1877 11.74,12.8458 C11.74,9.50388 14.4492,6.79471 17.7911,6.79471 Z M20.6109,9.54351 L18.9085,11.4729 L16.4634,10.7992 L17.819,12.9195 L16.4634,15.1767 L19.0283,14.2533 L20.4305,16.442 L20.4305,13.9017 L22.7218,12.9195 L20.4305,12.0988 L20.6109,9.54351 Z" id="Shape" fill="#FF0000"></path>
            </g>
        </g>
    </g>
</svg>