<svg width="31" height="35" viewBox="0 0 31 35" fill="none" xmlns="http://www.w3.org/2000/svg">
<path fill-rule="evenodd" clip-rule="evenodd" d="M4.89607 15.3572V11.0715C4.89607 8.22986 6.02489 5.50464 8.03421 3.49532C10.0435 1.486 12.7687 0.357178 15.6104 0.357178C18.452 0.357178 21.1772 1.486 23.1865 3.49532C25.1958 5.50464 26.3246 8.22986 26.3246 11.0715V15.3572C27.4613 15.3572 28.5514 15.8087 29.3551 16.6124C30.1588 17.4162 30.6104 18.5063 30.6104 19.6429V30.3572C30.6104 31.4938 30.1588 32.5839 29.3551 33.3876C28.5514 34.1914 27.4613 34.6429 26.3246 34.6429H4.89607C3.75942 34.6429 2.66934 34.1914 1.86561 33.3876C1.06188 32.5839 0.610352 31.4938 0.610352 30.3572V19.6429C0.610352 18.5063 1.06188 17.4162 1.86561 16.6124C2.66934 15.8087 3.75942 15.3572 4.89607 15.3572ZM22.0389 11.0715V15.3572H9.18178V11.0715C9.18178 9.3665 9.85907 7.73137 11.0647 6.52578C12.2703 5.32019 13.9054 4.64289 15.6104 4.64289C17.3153 4.64289 18.9504 5.32019 20.156 6.52578C21.3616 7.73137 22.0389 9.3665 22.0389 11.0715Z" fill="white"/>
</svg>
