<svg width="31" height="37" viewBox="0 0 31 37" fill="none" xmlns="http://www.w3.org/2000/svg">
<path d="M15.6104 0.662109C12.7687 0.662109 10.0435 1.8367 8.03421 3.92747C6.02489 6.01825 4.89607 8.85395 4.89607 11.8108V16.2702C3.75942 16.2702 2.66934 16.7401 1.86561 17.5764C1.06188 18.4127 0.610352 19.547 0.610352 20.7297V31.8783C0.610352 33.061 1.06188 34.1953 1.86561 35.0316C2.66934 35.868 3.75942 36.3378 4.89607 36.3378H26.3246C27.4613 36.3378 28.5514 35.868 29.3551 35.0316C30.1588 34.1953 30.6104 33.061 30.6104 31.8783V20.7297C30.6104 19.547 30.1588 18.4127 29.3551 17.5764C28.5514 16.7401 27.4613 16.2702 26.3246 16.2702H9.18178V11.8108C9.18125 10.1823 9.75167 8.60948 10.7861 7.38738C11.8205 6.16528 13.2478 5.3778 14.8004 5.17261C16.3529 4.96742 17.9241 5.35862 19.2193 6.27285C20.5145 7.18707 21.4446 8.56153 21.8354 10.1385C21.9774 10.7112 22.3323 11.2017 22.822 11.5022C23.0645 11.6509 23.3327 11.7486 23.6114 11.7895C23.8902 11.8304 24.1739 11.8137 24.4464 11.7405C24.719 11.6673 24.975 11.539 25.1998 11.3628C25.4247 11.1867 25.614 10.9661 25.757 10.7139C25.9 10.4616 25.9938 10.1824 26.0331 9.89243C26.0724 9.60241 26.0564 9.30718 25.9861 9.0236C25.3915 6.63057 24.0498 4.51084 22.1718 2.99738C20.2938 1.48393 17.9858 0.662494 15.6104 0.662109Z" fill="currentColor"/>
</svg>
